<svg xmlns="http://www.w3.org/2000/svg" viewBox="0 0 128 128">
  <path fill="#8B5CF6" d="M64 24c-16 0-16 16-16 16s0 16 16 16c16 0 16-16 32-16 16 0 16 16 16 16s0-16-16-16c-16 0-16 16-32 16-16 0-16-16-16-16s0-16 16-16z"/>
  <path fill="#22D3EE" d="M64 104c16 0 16-16 16-16s0-16-16-16c-16 0-16 16-32 16-16 0-16-16-16-16s0 16 16 16c16 0 16-16 32-16 16 0 16 16 16 16s0 16-16 16z"/>
  <circle cx="112" cy="40" r="10" fill="#22D3EE"/>
  <circle cx="16" cy="40" r="10" fill="#8B5CF6"/>
  <circle cx="112" cy="88" r="10" fill="#8B5CF6"/>
  <circle cx="16" cy="88" r="10" fill="#22D3EE"/>
</svg>
