<svg xmlns="http://www.w3.org/2000/svg" viewBox="0 0 128 128">
  <path fill="none" stroke="#E76F00" stroke-width="4" d="M46 92c-6 4-6 8 0 12 10 6 34 6 44 0 6-4 6-8 0-12"/>
  <path fill="none" stroke="#E76F00" stroke-width="4" d="M52 104c-4 3-4 6 2 9 8 4 22 4 30 0 6-3 6-6 2-9"/>
  <rect x="46" y="72" width="36" height="14" rx="3" fill="#5382A1"/>
  <path fill="#E76F00" d="M58 20c8 6 8 12 2 18-6 6-4 12 2 16-6-2-14-8-10-16 3-6 10-10 6-18z"/>
  <path fill="#5382A1" d="M42 46c-8 6-8 16 6 22-14 2-24-6-20-16 2-6 8-8 14-6z"/>
  <path fill="#5382A1" d="M86 46c8 6 8 16-6 22 14 2 24-6 20-16-2-6-8-8-14-6z"/>
  <rect x="44" y="56" width="40" height="16" rx="4" fill="#5382A1"/>
</svg>
